<svg xmlns="http://www.w3.org/2000/svg" viewBox="0 0 500 280" width="500" height="280">
  <title>L1e Ciclomotor — Vista Lateral</title>
  <rect width="500" height="280" fill="#f8f8f8"/>
  <!-- Chasis -->
  <path d="M 130,160 Q 180,140 250,138 L 350,140 Q 370,148 380,165" fill="none" stroke="#1a1a1a" stroke-width="4"/>
  <!-- Horquilla -->
  <line x1="128" y1="115" x2="105" y2="190" stroke="#1a1a1a" stroke-width="4"/>
  <!-- Manillar -->
  <line x1="124" y1="116" x2="108" y2="105" stroke="#1a1a1a" stroke-width="3.5"/>
  <line x1="138" y1="113" x2="155" y2="105" stroke="#1a1a1a" stroke-width="3.5"/>
  <!-- Carrocería/carenado -->
  <path d="M 155,148 Q 185,125 250,120 L 340,122 Q 365,128 375,148 Q 365,168 340,172 L 180,170 Q 155,165 155,148 Z"
        fill="#e0e0e0" stroke="#1a1a1a" stroke-width="2"/>
  <!-- Asiento pequeño -->
  <path d="M 270,120 Q 310,112 360,118 L 375,125 Q 370,130 340,132 L 270,130 Z" fill="#666" stroke="#1a1a1a" stroke-width="1.5"/>
  <!-- Motor pequeño -->
  <rect x="220" y="168" width="90" height="40" rx="5" fill="#ccc" stroke="#1a1a1a" stroke-width="2"/>
  <!-- Rueda delantera pequeña -->
  <circle cx="100" cy="196" r="50" fill="white" stroke="#1a1a1a" stroke-width="2.5"/>
  <circle cx="100" cy="196" r="36" fill="#e8e8e8" stroke="#666" stroke-width="1.5"/>
  <circle cx="100" cy="196" r="10" fill="#888"/>
  <!-- Rueda trasera -->
  <circle cx="388" cy="196" r="50" fill="white" stroke="#1a1a1a" stroke-width="2.5"/>
  <circle cx="388" cy="196" r="36" fill="#e8e8e8" stroke="#666" stroke-width="1.5"/>
  <circle cx="388" cy="196" r="10" fill="#888"/>
  <!-- Suelo -->
  <line x1="20" y1="246" x2="480" y2="246" stroke="#555" stroke-width="1.5" stroke-dasharray="8,6"/>
</svg>