<svg xmlns="http://www.w3.org/2000/svg" viewBox="0 0 600 300" width="600" height="300">
  <title>L3e Motocicleta — Vista Lateral</title>
  <rect width="600" height="300" fill="#f8f8f8"/>
  <!-- Chasis / frame (tubo central) -->
  <line x1="160" y1="165" x2="420" y2="145" stroke="#1a1a1a" stroke-width="4"/>
  <!-- Horquilla delantera -->
  <line x1="155" y1="100" x2="120" y2="205" stroke="#1a1a1a" stroke-width="5"/>
  <line x1="170" y1="100" x2="140" y2="205" stroke="#1a1a1a" stroke-width="3"/>
  <!-- Manillar -->
  <line x1="148" y1="103" x2="128" y2="93" stroke="#1a1a1a" stroke-width="4"/>
  <line x1="165" y1="100" x2="185" y2="90" stroke="#1a1a1a" stroke-width="4"/>
  <!-- Deposito -->
  <path d="M 195,118 Q 230,100 310,98 L 380,102 Q 400,108 400,130 Q 390,150 340,155 L 220,158 Q 185,150 185,135 Z"
        fill="#e8e8e8" stroke="#1a1a1a" stroke-width="2.5"/>
  <!-- Asiento -->
  <path d="M 300,145 Q 340,138 420,135 L 440,138 Q 445,145 440,150 Q 400,155 300,158 Z"
        fill="#555" stroke="#1a1a1a" stroke-width="2"/>
  <!-- Motor / bloque -->
  <rect x="230" y="168" width="140" height="55" rx="6" fill="#d0d0d0" stroke="#1a1a1a" stroke-width="2.5"/>
  <!-- Escape -->
  <path d="M 340,215 Q 380,225 440,220 Q 480,215 490,220" fill="none" stroke="#888" stroke-width="8" stroke-linecap="round"/>
  <!-- Basculante trasero -->
  <line x1="360" y1="175" x2="460" y2="200" stroke="#1a1a1a" stroke-width="4"/>
  <!-- Rueda delantera -->
  <circle cx="120" cy="210" r="62" fill="white" stroke="#1a1a1a" stroke-width="3"/>
  <circle cx="120" cy="210" r="44" fill="#e8e8e8" stroke="#666" stroke-width="1.5"/>
  <circle cx="120" cy="210" r="12" fill="#888"/>
  <!-- Rueda trasera -->
  <circle cx="468" cy="208" r="62" fill="white" stroke="#1a1a1a" stroke-width="3"/>
  <circle cx="468" cy="208" r="44" fill="#e8e8e8" stroke="#666" stroke-width="1.5"/>
  <circle cx="468" cy="208" r="12" fill="#888"/>
  <!-- Suelo -->
  <line x1="20" y1="272" x2="580" y2="272" stroke="#555" stroke-width="1.5" stroke-dasharray="8,6"/>
</svg>