<svg xmlns="http://www.w3.org/2000/svg" viewBox="0 0 800 310" width="800" height="310">
  <title>N1 Furgoneta Pequeña — Vista Lateral</title>
  <rect width="800" height="310" fill="#f8f8f8"/>
  <!-- Carrocería box furgoneta -->
  <path d="M 70,238 L 70,120 Q 80,108 110,104 L 190,90 Q 220,78 270,76 L 650,76 Q 690,78 710,100 L 718,120 L 720,238 Z"
        fill="white" stroke="#1a1a1a" stroke-width="3" stroke-linejoin="round"/>
  <!-- Cabina delantera diferenciada -->
  <path d="M 70,238 L 70,120 Q 80,108 110,104 L 190,90 Q 220,78 270,76 L 310,76 L 310,238 Z"
        fill="#f5f5f5" stroke="#1a1a1a" stroke-width="2"/>
  <!-- Parabrisas -->
  <path d="M 190,90 L 200,76 L 300,76 L 300,92 Q 280,94 190,90 Z" fill="#d0e8f0" stroke="#1a1a1a" stroke-width="1.5"/>
  <!-- Ventanilla conductor -->
  <rect x="165" y="120" width="90" height="55" rx="3" fill="#d0e8f0" stroke="#1a1a1a" stroke-width="1.5"/>
  <!-- Ventanilla pasajero pequeña -->
  <rect x="265" y="120" width="38" height="55" rx="3" fill="#d0e8f0" stroke="#1a1a1a" stroke-width="1.5"/>
  <!-- Zona carga (sin ventanas) -->
  <rect x="318" y="100" width="394" height="138" rx="2" fill="white" stroke="#bbb" stroke-width="1"/>
  <!-- Puerta corredera carga -->
  <line x1="380" y1="100" x2="380" y2="238" stroke="#999" stroke-width="1.5" stroke-dasharray="4,3"/>
  <!-- Puertas traseras dobles -->
  <line x1="650" y1="80" x2="650" y2="238" stroke="#1a1a1a" stroke-width="2"/>
  <!-- Rueda delantera -->
  <circle cx="165" cy="240" r="46" fill="white" stroke="#1a1a1a" stroke-width="3"/>
  <circle cx="165" cy="240" r="30" fill="#e0e0e0" stroke="#555" stroke-width="1.5"/>
  <circle cx="165" cy="240" r="11" fill="#999"/>
  <!-- Rueda trasera -->
  <circle cx="620" cy="240" r="46" fill="white" stroke="#1a1a1a" stroke-width="3"/>
  <circle cx="620" cy="240" r="30" fill="#e0e0e0" stroke="#555" stroke-width="1.5"/>
  <circle cx="620" cy="240" r="11" fill="#999"/>
  <!-- Suelo -->
  <line x1="40" y1="286" x2="760" y2="286" stroke="#555" stroke-width="1.5" stroke-dasharray="8,6"/>
</svg>