<svg xmlns="http://www.w3.org/2000/svg" viewBox="0 0 800 300" width="800" height="300">
  <title>M1 Turismo Berlina — Vista Lateral</title>
  <rect width="800" height="300" fill="#f8f8f8"/>
  <!-- Carrocería principal -->
  <path d="M 80,220 L 80,180 Q 90,170 120,165 L 200,130 Q 240,108 300,105 L 480,105 Q 530,106 570,118 L 650,150 Q 690,165 710,180 L 720,220 Z"
        fill="white" stroke="#1a1a1a" stroke-width="3" stroke-linejoin="round"/>
  <!-- Techo -->
  <path d="M 200,130 Q 250,90 310,82 L 490,82 Q 540,82 570,95 L 610,120 L 570,118 Q 530,106 480,105 L 300,105 Q 240,108 200,130 Z"
        fill="white" stroke="#1a1a1a" stroke-width="3" stroke-linejoin="round"/>
  <!-- Parabrisas delantero -->
  <path d="M 300,105 L 310,82 L 380,80 L 380,105 Z" fill="#d0e8f0" stroke="#1a1a1a" stroke-width="1.5"/>
  <!-- Luneta trasera -->
  <path d="M 490,105 L 490,82 L 560,84 L 570,105 Z" fill="#d0e8f0" stroke="#1a1a1a" stroke-width="1.5"/>
  <!-- Ventanas laterales -->
  <path d="M 385,105 L 385,83 L 485,82 L 485,105 Z" fill="#d0e8f0" stroke="#1a1a1a" stroke-width="1.5"/>
  <!-- Rueda delantera -->
  <circle cx="175" cy="222" r="42" fill="white" stroke="#1a1a1a" stroke-width="3"/>
  <circle cx="175" cy="222" r="28" fill="#e0e0e0" stroke="#555" stroke-width="1.5"/>
  <circle cx="175" cy="222" r="10" fill="#999"/>
  <!-- Rueda trasera -->
  <circle cx="610" cy="222" r="42" fill="white" stroke="#1a1a1a" stroke-width="3"/>
  <circle cx="610" cy="222" r="28" fill="#e0e0e0" stroke="#555" stroke-width="1.5"/>
  <circle cx="610" cy="222" r="10" fill="#999"/>
  <!-- Línea suelo -->
  <line x1="40" y1="264" x2="760" y2="264" stroke="#555" stroke-width="1.5" stroke-dasharray="8,6"/>
</svg>