<svg xmlns="http://www.w3.org/2000/svg" viewBox="0 0 800 320" width="800" height="320">
  <title>M1 SUV — Vista Lateral</title>
  <rect width="800" height="320" fill="#f8f8f8"/>
  <!-- Carrocería alta -->
  <path d="M 75,238 L 75,185 Q 85,170 115,163 L 180,145 Q 210,120 270,112 L 570,112 Q 620,115 660,135 L 700,165 Q 718,180 722,195 L 725,238 Z"
        fill="white" stroke="#1a1a1a" stroke-width="3.5" stroke-linejoin="round"/>
  <!-- Techo plano SUV -->
  <path d="M 180,145 Q 220,96 290,90 L 540,90 Q 590,92 630,108 L 570,112 L 270,112 Q 210,120 180,145 Z"
        fill="white" stroke="#1a1a1a" stroke-width="3" stroke-linejoin="round"/>
  <!-- Parabrisas más vertical -->
  <path d="M 270,112 L 292,90 L 370,88 L 370,112 Z" fill="#d0e8f0" stroke="#1a1a1a" stroke-width="1.5"/>
  <!-- Ventanas -->
  <path d="M 374,112 L 374,89 L 470,89 L 470,112 Z" fill="#d0e8f0" stroke="#1a1a1a" stroke-width="1.5"/>
  <path d="M 474,112 L 474,90 L 560,90 L 570,112 Z" fill="#d0e8f0" stroke="#1a1a1a" stroke-width="1.5"/>
  <!-- Protecciones bajas -->
  <rect x="75" y="205" width="650" height="18" rx="4" fill="#ddd" stroke="#aaa" stroke-width="1"/>
  <!-- Ruedas grandes SUV -->
  <circle cx="175" cy="240" r="48" fill="white" stroke="#1a1a1a" stroke-width="3.5"/>
  <circle cx="175" cy="240" r="32" fill="#d8d8d8" stroke="#555" stroke-width="1.5"/>
  <circle cx="175" cy="240" r="12" fill="#888"/>
  <circle cx="625" cy="240" r="48" fill="white" stroke="#1a1a1a" stroke-width="3.5"/>
  <circle cx="625" cy="240" r="32" fill="#d8d8d8" stroke="#555" stroke-width="1.5"/>
  <circle cx="625" cy="240" r="12" fill="#888"/>
  <!-- Suelo -->
  <line x1="40" y1="288" x2="760" y2="288" stroke="#555" stroke-width="1.5" stroke-dasharray="8,6"/>
</svg>