<svg xmlns="http://www.w3.org/2000/svg" viewBox="0 0 800 300" width="800" height="300">
  <title>M1 Hatchback — Vista Lateral</title>
  <rect width="800" height="300" fill="#f8f8f8"/>
  <!-- Carrocería -->
  <path d="M 90,225 L 90,185 Q 100,172 130,168 L 220,140 Q 265,112 330,108 L 560,108 Q 610,110 645,130 L 680,162 Q 700,175 710,188 L 718,225 Z"
        fill="white" stroke="#1a1a1a" stroke-width="3" stroke-linejoin="round"/>
  <!-- Techo -->
  <path d="M 220,140 Q 270,95 340,88 L 520,88 Q 570,90 610,108 L 560,108 Q 610,110 645,130 L 610,108 Q 570,90 520,88 L 340,88 Q 270,95 220,140 Z"
        fill="white" stroke="#1a1a1a" stroke-width="2"/>
  <path d="M 220,140 Q 270,95 340,88 L 520,88 Q 570,90 610,108 L 560,108 L 330,108 Q 265,112 220,140 Z"
        fill="white" stroke="#1a1a1a" stroke-width="3" stroke-linejoin="round"/>
  <!-- Parabrisas -->
  <path d="M 330,108 L 345,88 L 420,86 L 420,108 Z" fill="#d0e8f0" stroke="#1a1a1a" stroke-width="1.5"/>
  <!-- Ventanas -->
  <path d="M 424,108 L 424,87 L 510,87 L 510,108 Z" fill="#d0e8f0" stroke="#1a1a1a" stroke-width="1.5"/>
  <!-- Luneta (inclinada en hatchback) -->
  <path d="M 514,108 L 514,89 L 600,106 L 610,108 Z" fill="#d0e8f0" stroke="#1a1a1a" stroke-width="1.5"/>
  <!-- Ruedas -->
  <circle cx="185" cy="226" r="43" fill="white" stroke="#1a1a1a" stroke-width="3"/>
  <circle cx="185" cy="226" r="29" fill="#e0e0e0" stroke="#555" stroke-width="1.5"/>
  <circle cx="185" cy="226" r="10" fill="#999"/>
  <circle cx="615" cy="226" r="43" fill="white" stroke="#1a1a1a" stroke-width="3"/>
  <circle cx="615" cy="226" r="29" fill="#e0e0e0" stroke="#555" stroke-width="1.5"/>
  <circle cx="615" cy="226" r="10" fill="#999"/>
  <!-- Suelo -->
  <line x1="40" y1="269" x2="760" y2="269" stroke="#555" stroke-width="1.5" stroke-dasharray="8,6"/>
</svg>