<svg xmlns="http://www.w3.org/2000/svg" viewBox="0 0 800 310" width="800" height="310">
  <title>M1 Monovolumen — Vista Lateral</title>
  <rect width="800" height="310" fill="#f8f8f8"/>
  <!-- Carrocería monovolumen (silueta más alta y redondeada) -->
  <path d="M 80,230 L 80,185 Q 90,170 115,162 L 165,140 Q 195,105 260,95 L 550,95 Q 610,98 660,130 L 700,165 Q 718,182 720,200 L 722,230 Z"
        fill="white" stroke="#1a1a1a" stroke-width="3" stroke-linejoin="round"/>
  <!-- Techo redondeado -->
  <path d="M 165,140 Q 200,88 275,80 L 520,80 Q 590,82 640,115 L 660,130 L 550,95 L 260,95 Q 195,105 165,140 Z"
        fill="white" stroke="#1a1a1a" stroke-width="3" stroke-linejoin="round"/>
  <!-- Parabrisas inclinado -->
  <path d="M 260,95 L 278,80 L 370,78 L 370,95 Z" fill="#d0e8f0" stroke="#1a1a1a" stroke-width="1.5"/>
  <!-- 3 ventanas laterales -->
  <path d="M 374,95 L 374,79 L 445,79 L 445,95 Z" fill="#d0e8f0" stroke="#1a1a1a" stroke-width="1.5"/>
  <path d="M 449,95 L 449,80 L 520,80 L 520,95 Z" fill="#d0e8f0" stroke="#1a1a1a" stroke-width="1.5"/>
  <!-- Luneta trasera -->
  <path d="M 524,95 L 524,81 L 598,110 L 610,128 L 580,125 L 550,95 Z" fill="#d0e8f0" stroke="#1a1a1a" stroke-width="1.5"/>
  <!-- Ruedas -->
  <circle cx="175" cy="232" r="45" fill="white" stroke="#1a1a1a" stroke-width="3"/>
  <circle cx="175" cy="232" r="30" fill="#e0e0e0" stroke="#555" stroke-width="1.5"/>
  <circle cx="175" cy="232" r="11" fill="#999"/>
  <circle cx="620" cy="232" r="45" fill="white" stroke="#1a1a1a" stroke-width="3"/>
  <circle cx="620" cy="232" r="30" fill="#e0e0e0" stroke="#555" stroke-width="1.5"/>
  <circle cx="620" cy="232" r="11" fill="#999"/>
  <!-- Suelo -->
  <line x1="40" y1="277" x2="760" y2="277" stroke="#555" stroke-width="1.5" stroke-dasharray="8,6"/>
</svg>